<svg xmlns="http://www.w3.org/2000/svg" xmlns:xlink="http://www.w3.org/1999/xlink" width="500" zoomAndPan="magnify" viewBox="0 0 375 374.999991" height="500" preserveAspectRatio="xMidYMid meet" version="1.0"><defs><clipPath id="d555d0596e"><path d="M 27.15625 84.679688 L 348 84.679688 L 348 290.179688 L 27.15625 290.179688 Z M 27.15625 84.679688 " clip-rule="nonzero"/></clipPath><clipPath id="3e142fd8ee"><path d="M 27.15625 159.679688 L 27.15625 215.320312 C 27.15625 256.742188 60.734375 290.320312 102.15625 290.320312 L 272.84375 290.320312 C 314.265625 290.320312 347.84375 256.742188 347.84375 215.320312 L 347.84375 159.679688 C 347.84375 118.257812 314.265625 84.679688 272.84375 84.679688 L 102.15625 84.679688 C 60.734375 84.679688 27.15625 118.257812 27.15625 159.679688 Z M 27.15625 159.679688 " clip-rule="nonzero"/></clipPath><clipPath id="c0f3ed1ab7"><path d="M 78 145.03125 L 100.492188 145.03125 L 100.492188 162.917969 L 78 162.917969 Z M 78 145.03125 " clip-rule="nonzero"/></clipPath><clipPath id="c49768eeee"><path d="M 78.226562 159.75 C 83.023438 154.199219 86.699219 151.273438 89.625 149.398438 C 92.398438 147.601562 96.375 145.273438 98.175781 145.125 C 98.925781 145.050781 99.523438 145.199219 99.898438 145.574219 C 100.273438 145.949219 100.574219 146.699219 100.425781 147.226562 C 100.273438 147.824219 99.375 148.726562 98.773438 148.800781 C 98.25 148.949219 97.425781 148.574219 97.125 148.199219 C 96.824219 147.675781 96.75 146.398438 97.050781 145.875 C 97.273438 145.425781 98.101562 145.050781 98.550781 145.050781 C 99.074219 145.050781 99.898438 145.425781 100.125 145.875 C 100.425781 146.398438 100.5 147.449219 100.050781 148.199219 C 99.074219 149.625 94.050781 150.976562 91.800781 152.324219 C 90.074219 153.375 89.101562 154.125 87.601562 155.476562 C 85.574219 157.351562 82.648438 162.300781 80.773438 162.824219 C 79.800781 163.125 78.523438 162.601562 78.148438 162.074219 C 77.773438 161.550781 78.226562 159.75 78.226562 159.75 " clip-rule="nonzero"/></clipPath><clipPath id="30e1aff4f4"><path d="M 63.703125 176.164062 L 67.960938 176.164062 L 67.960938 179.847656 L 63.703125 179.847656 Z M 63.703125 176.164062 " clip-rule="nonzero"/></clipPath><clipPath id="507f9b0a93"><path d="M 67.949219 177.449219 C 66.074219 180.523438 64.273438 179.925781 63.898438 179.324219 C 63.523438 178.648438 63.824219 176.851562 64.425781 176.398438 C 65.023438 175.875 67.425781 176.550781 67.425781 176.550781 " clip-rule="nonzero"/></clipPath><clipPath id="db5a37570d"><path d="M 54.386719 141.234375 L 106.246094 141.234375 L 106.246094 185.464844 L 54.386719 185.464844 Z M 54.386719 141.234375 " clip-rule="nonzero"/></clipPath><clipPath id="07876b59c0"><path d="M 95.25 151.273438 C 92.925781 148.125 87.675781 148.949219 87.601562 148.800781 C 87.601562 148.648438 89.851562 148.726562 90.898438 148.273438 C 92.101562 147.75 93.375 145.726562 94.5 145.574219 C 95.398438 145.5 96.675781 146.175781 96.898438 146.773438 C 97.199219 147.375 96.675781 148.875 96.074219 149.324219 C 95.324219 149.851562 93.976562 148.949219 92.398438 149.175781 C 89.25 149.699219 80.175781 152.101562 78.601562 154.125 C 77.925781 155.101562 77.773438 156.75 78.375 157.351562 C 79.351562 158.25 84.449219 157.351562 86.25 156.449219 C 87.449219 155.851562 87.898438 154.050781 88.648438 153.824219 C 89.175781 153.601562 89.699219 153.75 90.074219 154.050781 C 90.523438 154.273438 91.125 155.023438 91.125 155.625 C 91.125 156.226562 90.601562 157.199219 90 157.574219 C 89.25 158.101562 87.898438 157.648438 86.773438 158.101562 C 85.273438 158.699219 83.324219 161.25 81.976562 161.476562 C 81 161.625 79.800781 161.324219 79.425781 160.800781 C 79.050781 160.273438 79.273438 158.851562 79.800781 158.175781 C 80.398438 157.425781 81.898438 157.648438 83.25 156.824219 C 85.5 155.476562 89.550781 150.300781 91.574219 149.699219 C 92.476562 149.398438 93.300781 149.550781 93.75 150 C 94.199219 150.375 94.574219 151.5 94.273438 152.101562 C 93.675781 153.300781 89.773438 153.976562 88.050781 155.101562 C 86.476562 156 85.574219 157.648438 84.074219 158.175781 C 82.726562 158.699219 80.398438 159.148438 79.5 158.324219 C 78.449219 157.351562 78.300781 154.199219 79.050781 152.023438 C 80.175781 148.800781 86.324219 142.949219 88.199219 141.75 C 88.800781 141.375 89.101562 141.226562 89.625 141.300781 C 90.148438 141.375 91.050781 141.824219 91.273438 142.351562 C 91.574219 143.023438 90.675781 144.226562 90.75 145.125 C 90.824219 145.949219 91.800781 146.398438 91.726562 147.375 C 91.648438 149.324219 88.726562 153.824219 87.226562 156.074219 C 86.175781 157.648438 85.5 158.699219 84.074219 159.75 C 82.425781 161.023438 79.351562 161.398438 77.699219 162.675781 C 76.199219 163.726562 75.675781 165.226562 74.324219 166.351562 C 72.675781 167.699219 70.273438 168.375 68.324219 169.949219 C 65.773438 172.050781 62.550781 175.425781 60.824219 178.125 C 59.476562 180.300781 59.25 183.75 58.125 184.800781 C 57.523438 185.324219 56.773438 185.398438 56.25 185.324219 C 55.726562 185.25 55.199219 184.949219 54.898438 184.5 C 54.601562 184.050781 54.375 183.148438 54.601562 182.550781 C 54.824219 181.875 56.023438 181.199219 56.851562 180.898438 C 57.675781 180.601562 58.425781 181.273438 59.398438 180.75 C 61.648438 179.476562 64.351562 171.75 67.574219 168.75 C 70.351562 166.125 73.574219 164.773438 76.875 163.273438 C 80.398438 161.625 84.824219 161.175781 88.273438 159.375 C 91.648438 157.648438 95.101562 154.800781 97.5 152.773438 C 99.148438 151.351562 101.699219 149.925781 101.476562 148.875 C 101.324219 147.75 96.675781 146.023438 96.300781 146.398438 C 96 146.773438 99.375 149.398438 99.523438 150.976562 C 99.675781 152.625 98.773438 154.199219 97.199219 156.074219 C 93.675781 160.125 80.625 167.398438 74.851562 170.699219 C 71.398438 172.648438 67.875 173.175781 66.375 174.824219 C 65.398438 175.875 65.25 177 65.023438 178.199219 C 64.726562 179.476562 65.175781 181.273438 64.800781 182.25 C 64.574219 182.773438 64.273438 183.148438 63.824219 183.375 C 63.375 183.675781 62.398438 183.824219 61.875 183.523438 C 61.273438 183.226562 60.523438 182.023438 60.601562 181.425781 C 60.675781 180.824219 61.949219 180.601562 62.476562 179.925781 C 63.226562 178.875 63.375 176.851562 64.273438 175.425781 C 65.476562 173.625 67.273438 171.226562 69.148438 170.398438 C 70.875 169.574219 74.925781 170.25 74.925781 170.023438 C 74.925781 169.949219 72.75 169.574219 72.824219 169.5 C 72.824219 169.425781 73.425781 169.351562 73.800781 169.425781 C 74.25 169.5 74.851562 169.800781 75.074219 170.175781 C 75.449219 170.625 75.675781 171.523438 75.523438 172.125 C 75.375 172.648438 74.851562 173.175781 74.175781 173.550781 C 72.976562 174.074219 69.675781 174.523438 68.476562 174 C 67.574219 173.625 66.898438 172.648438 66.824219 171.976562 C 66.75 171.375 67.199219 170.550781 67.726562 170.175781 C 68.175781 169.800781 69.148438 169.726562 69.675781 169.875 C 70.199219 170.101562 70.875 170.773438 71.023438 171.375 C 71.175781 171.976562 70.949219 172.875 70.574219 173.324219 C 70.050781 173.773438 68.625 174.148438 68.023438 173.851562 C 67.425781 173.476562 66.75 172.199219 66.824219 171.523438 C 66.976562 170.851562 67.875 170.175781 68.773438 169.800781 C 70.050781 169.273438 73.199219 169.050781 74.324219 169.574219 C 75 169.875 75.375 170.550781 75.523438 171.074219 C 75.675781 171.523438 75.523438 172.199219 75.300781 172.574219 C 75.074219 172.949219 74.625 173.398438 74.175781 173.550781 C 73.574219 173.699219 72.824219 173.101562 72 173.398438 C 70.425781 174 67.726562 177.675781 66.300781 179.550781 C 65.175781 180.898438 64.800781 182.925781 63.824219 183.375 C 63.148438 183.75 61.949219 183.601562 61.425781 183.226562 C 60.898438 182.925781 60.75 182.25 60.601562 181.425781 C 60.375 179.851562 60.824219 176.175781 61.425781 174.601562 C 61.726562 173.699219 61.949219 173.25 62.773438 172.574219 C 64.425781 171 68.625 169.726562 72.449219 167.550781 C 78.226562 164.25 91.273438 157.648438 93.824219 153.976562 C 94.875 152.398438 94.648438 151.050781 94.726562 149.699219 C 94.726562 148.5 93.75 147.226562 94.125 146.324219 C 94.5 145.351562 96 144.675781 97.199219 144.148438 C 98.476562 143.625 100.125 142.949219 101.550781 143.101562 C 102.976562 143.25 104.925781 144.074219 105.675781 145.199219 C 106.351562 146.25 106.199219 148.199219 105.898438 149.398438 C 105.675781 150.300781 105.300781 150.824219 104.476562 151.800781 C 102.675781 153.976562 98.25 158.101562 93.976562 160.800781 C 88.574219 164.101562 78.523438 166.199219 73.875 169.273438 C 70.949219 171.226562 69.449219 173.023438 67.648438 175.351562 C 65.625 177.824219 64.425781 182.625 62.550781 183.75 C 61.351562 184.5 59.699219 183.523438 58.726562 183.898438 C 57.898438 184.199219 57.375 185.25 56.699219 185.398438 C 56.25 185.476562 55.648438 185.25 55.273438 184.875 C 54.824219 184.5 54.449219 183.898438 54.449219 183.074219 C 54.449219 181.351562 56.25 177.824219 57.824219 175.425781 C 59.476562 172.726562 61.425781 170.398438 64.425781 167.699219 C 68.773438 163.800781 78.226562 159.601562 82.351562 155.25 C 85.351562 152.023438 87.75 147.75 88.351562 145.199219 C 88.726562 143.773438 87.675781 142.273438 88.199219 141.75 C 88.648438 141.300781 90.449219 141.449219 90.976562 141.976562 C 91.5 142.425781 91.648438 143.550781 91.351562 144.300781 C 90.976562 145.425781 88.800781 146.175781 87.375 147.601562 C 85.5 149.476562 81.300781 154.875 81.601562 155.101562 C 81.824219 155.324219 84.523438 152.625 86.25 151.648438 C 87.976562 150.75 90.523438 149.550781 92.023438 149.550781 C 92.851562 149.550781 93.675781 149.851562 94.050781 150.375 C 94.351562 150.824219 94.425781 151.726562 94.050781 152.550781 C 93.074219 154.574219 87.148438 159.074219 84.675781 160.5 C 83.25 161.25 81.976562 161.773438 81 161.699219 C 80.398438 161.625 79.726562 161.25 79.425781 160.800781 C 79.125 160.425781 78.976562 159.976562 79.125 159.449219 C 79.351562 158.550781 80.550781 157.125 81.75 156.300781 C 83.476562 155.175781 87.074219 153.75 88.648438 153.824219 C 89.625 153.824219 90.449219 154.125 90.824219 154.648438 C 91.199219 155.398438 90.976562 157.351562 90.375 158.25 C 89.699219 159.226562 88.199219 159.824219 86.773438 160.351562 C 85.050781 160.949219 82.351562 161.25 80.476562 161.175781 C 78.976562 161.175781 77.398438 161.023438 76.425781 160.425781 C 75.601562 159.976562 75.074219 159.226562 74.699219 158.476562 C 74.324219 157.726562 74.175781 156.75 74.175781 155.773438 C 74.25 154.726562 74.25 153.375 75.148438 152.324219 C 76.875 150.300781 82.949219 148.125 86.550781 147 C 89.476562 146.023438 93.300781 145.273438 95.023438 145.5 C 95.773438 145.648438 96.375 145.875 96.675781 146.324219 C 97.050781 146.851562 97.125 147.898438 96.75 148.648438 C 96.148438 149.925781 93.148438 151.726562 91.351562 152.324219 C 89.925781 152.773438 88.125 153 87.074219 152.324219 C 86.101562 151.726562 85.125 149.773438 85.273438 148.726562 C 85.351562 147.675781 86.550781 146.625 87.449219 146.023438 C 88.425781 145.425781 89.625 145.199219 90.976562 145.125 C 92.550781 145.050781 95.023438 145.050781 96.300781 145.800781 C 97.5 146.476562 98.476562 147.824219 98.773438 148.875 C 99.074219 149.773438 98.925781 151.125 98.398438 151.648438 C 98.023438 152.101562 97.050781 152.25 96.449219 152.101562 C 96 152.023438 95.25 151.273438 95.25 151.273438 " clip-rule="nonzero"/></clipPath><clipPath id="2b4db98425"><path d="M 91.703125 140.003906 L 103.828125 140.003906 L 103.828125 158.507812 L 91.703125 158.507812 Z M 91.703125 140.003906 " clip-rule="nonzero"/></clipPath><clipPath id="50f9afc81d"><path d="M 103.800781 142.949219 C 98.625 154.351562 97.050781 156.824219 95.625 157.726562 C 94.726562 158.324219 93.601562 158.550781 93 158.324219 C 92.398438 158.101562 91.726562 157.273438 91.726562 156.675781 C 91.648438 155.925781 92.324219 154.648438 93 154.273438 C 93.523438 153.976562 94.5 154.050781 95.023438 154.425781 C 95.625 154.726562 96.148438 155.550781 96.148438 156.148438 C 96.148438 156.898438 95.25 158.175781 94.648438 158.398438 C 94.050781 158.625 93 158.476562 92.550781 158.101562 C 92.023438 157.574219 91.648438 156.449219 91.875 155.476562 C 92.175781 153.976562 94.574219 152.476562 95.851562 150.375 C 97.425781 147.75 98.851562 141.976562 100.125 140.625 C 100.648438 140.175781 101.101562 140.023438 101.625 140.023438 C 102.074219 140.023438 102.75 140.175781 103.125 140.550781 C 103.574219 141 103.800781 142.949219 103.800781 142.949219 " clip-rule="nonzero"/></clipPath><clipPath id="778cb144be"><path d="M 77.746094 148.019531 L 85.148438 148.019531 L 85.148438 153.777344 L 77.746094 153.777344 Z M 77.746094 148.019531 " clip-rule="nonzero"/></clipPath><clipPath id="3bc942f722"><path d="M 84 152.023438 C 79.648438 153.824219 79.199219 153.824219 78.824219 153.523438 C 78.300781 153.074219 77.625 151.800781 77.773438 151.125 C 77.925781 150.449219 79.125 149.550781 79.800781 149.476562 C 80.398438 149.398438 81.300781 149.851562 81.601562 150.375 C 81.976562 150.824219 82.125 151.800781 81.898438 152.324219 C 81.601562 153 80.398438 153.75 79.726562 153.75 C 79.125 153.75 78.226562 153.226562 78 152.699219 C 77.699219 152.101562 77.851562 150.824219 78.375 150.074219 C 78.976562 149.175781 80.851562 148.199219 81.976562 148.050781 C 82.949219 147.976562 84.375 148.273438 84.824219 148.875 C 85.199219 149.324219 85.199219 150.300781 85.050781 150.898438 C 84.898438 151.351562 84 152.023438 84 152.023438 " clip-rule="nonzero"/></clipPath><clipPath id="76dd1d90bd"><path d="M 76.257812 147.957031 L 96.238281 147.957031 L 96.238281 162.941406 L 76.257812 162.941406 Z M 76.257812 147.957031 " clip-rule="nonzero"/></clipPath><clipPath id="ad45c32710"><path d="M 81.300781 161.625 C 78.300781 162.601562 77.699219 162.523438 77.324219 162.226562 C 76.800781 161.925781 76.351562 161.023438 76.273438 160.425781 C 76.199219 159.898438 76.5 159.300781 76.726562 158.925781 C 76.949219 158.625 77.25 158.324219 77.625 158.25 C 78.226562 158.175781 79.125 159.226562 80.175781 159 C 82.949219 158.476562 90.226562 148.648438 93 148.050781 C 94.125 147.824219 95.25 148.273438 95.699219 148.875 C 96.148438 149.398438 96.226562 150.449219 96 151.050781 C 95.773438 151.648438 95.023438 152.324219 94.425781 152.476562 C 93.75 152.699219 92.773438 152.398438 92.25 152.023438 C 91.800781 151.574219 91.351562 150.601562 91.5 149.925781 C 91.648438 149.25 92.773438 148.050781 93.523438 147.976562 C 94.273438 147.824219 95.625 148.648438 96 149.324219 C 96.300781 149.925781 96.226562 150.601562 95.773438 151.5 C 94.574219 153.976562 86.476562 161.324219 82.875 162.523438 C 80.773438 163.199219 78.375 162.824219 77.324219 162.226562 C 76.726562 161.925781 76.425781 161.476562 76.351562 160.949219 C 76.199219 160.351562 76.351562 159.449219 76.726562 158.925781 C 77.324219 158.175781 79.125 157.425781 80.023438 157.273438 C 80.625 157.199219 81.148438 157.273438 81.601562 157.648438 C 82.125 158.023438 82.648438 159.300781 82.574219 159.976562 C 82.5 160.574219 81.300781 161.625 81.300781 161.625 " clip-rule="nonzero"/></clipPath><clipPath id="294930614e"><path d="M 63.273438 173.972656 L 68.328125 173.972656 L 68.328125 181.238281 L 63.273438 181.238281 Z M 63.273438 173.972656 " clip-rule="nonzero"/></clipPath><clipPath id="06bb229617"><path d="M 63.300781 178.648438 C 64.425781 174.601562 65.175781 174 65.773438 174 C 66.449219 174 67.726562 174.75 68.023438 175.425781 C 68.324219 175.949219 68.25 177 67.800781 177.449219 C 67.425781 178.050781 66 178.5 65.324219 178.351562 C 64.726562 178.199219 64.050781 177.375 63.898438 176.773438 C 63.675781 176.25 63.898438 175.273438 64.351562 174.75 C 64.726562 174.300781 65.625 173.925781 66.226562 174 C 66.976562 174.148438 67.875 175.050781 68.175781 175.875 C 68.550781 176.773438 68.023438 178.5 67.726562 179.398438 C 67.574219 179.925781 67.351562 180.449219 66.976562 180.75 C 66.523438 181.050781 65.925781 181.273438 65.476562 181.199219 C 64.949219 181.199219 64.351562 180.976562 63.976562 180.601562 C 63.601562 180.148438 63.300781 178.648438 63.300781 178.648438 " clip-rule="nonzero"/></clipPath></defs><g clip-path="url(#d555d0596e)"><g clip-path="url(#3e142fd8ee)"><path fill="#5271ff" d="M 68.347656 187.53125 L 125.742188 233.960938 L 115.261719 258.820312 L 27.15625 187.53125 L 153.957031 84.921875 L 153.957031 118.25 Z M 259.734375 116.242188 L 249.253906 141.101562 L 306.648438 187.53125 L 221.042969 256.75 L 221.042969 290.078125 L 347.839844 187.46875 Z M 216.714844 84.921875 L 130.132812 290.078125 L 158.28125 290.078125 L 244.867188 84.921875 Z M 216.714844 84.921875 " fill-opacity="1" fill-rule="nonzero"/></g></g><g clip-path="url(#c0f3ed1ab7)"><g clip-path="url(#c49768eeee)"><path fill="#e7191f" d="M 75.148438 142.050781 L 103.472656 142.050781 L 103.472656 165.898438 L 75.148438 165.898438 Z M 75.148438 142.050781 " fill-opacity="1" fill-rule="nonzero"/></g></g><g clip-path="url(#30e1aff4f4)"><g clip-path="url(#507f9b0a93)"><path fill="#e7191f" d="M 60.898438 173.398438 L 71.03125 173.398438 L 71.03125 183.226562 L 60.898438 183.226562 Z M 60.898438 173.398438 " fill-opacity="1" fill-rule="nonzero"/></g></g><g clip-path="url(#db5a37570d)"><g clip-path="url(#07876b59c0)"><path fill="#5271ff" d="M 51.449219 138.300781 L 108.988281 138.300781 L 108.988281 188.398438 L 51.449219 188.398438 Z M 51.449219 138.300781 " fill-opacity="1" fill-rule="nonzero"/></g></g><g clip-path="url(#2b4db98425)"><g clip-path="url(#50f9afc81d)"><path fill="#5271ff" d="M 88.726562 137.023438 L 106.875 137.023438 L 106.875 161.484375 L 88.726562 161.484375 Z M 88.726562 137.023438 " fill-opacity="1" fill-rule="nonzero"/></g></g><g clip-path="url(#778cb144be)"><g clip-path="url(#3bc942f722)"><path fill="#5271ff" d="M 74.773438 145.050781 L 88.027344 145.050781 L 88.027344 156.75 L 74.773438 156.75 Z M 74.773438 145.050781 " fill-opacity="1" fill-rule="nonzero"/></g></g><g clip-path="url(#76dd1d90bd)"><g clip-path="url(#ad45c32710)"><path fill="#5271ff" d="M 73.273438 144.976562 L 99.054688 144.976562 L 99.054688 165.601562 L 73.273438 165.601562 Z M 73.273438 144.976562 " fill-opacity="1" fill-rule="nonzero"/></g></g><g clip-path="url(#294930614e)"><g clip-path="url(#06bb229617)"><path fill="#5271ff" d="M 60.300781 171 L 71.175781 171 L 71.175781 184.253906 L 60.300781 184.253906 Z M 60.300781 171 " fill-opacity="1" fill-rule="nonzero"/></g></g></svg>